<?xml version="1.0" standalone="no"?>
<!DOCTYPE svg PUBLIC "-//W3C//DTD SVG 20010904//EN"
 "http://www.w3.org/TR/2001/REC-SVG-20010904/DTD/svg10.dtd">
<svg version="1.0" xmlns="http://www.w3.org/2000/svg"
 width="277.000000pt" height="277.000000pt" viewBox="0 0 277.000000 277.000000"
 preserveAspectRatio="xMidYMid meet">
<metadata>
Created by potrace 1.11, written by Peter Selinger 2001-2013
</metadata>
<g transform="translate(0.000000,277.000000) scale(0.100000,-0.100000)"
fill="#000000" stroke="none">
<path d="M580 2433 c-66 -24 -144 -106 -164 -173 -20 -68 -20 -112 0 -180 20
-67 101 -152 162 -170 40 -12 41 -14 51 -74 6 -33 13 -72 16 -86 3 -14 10 -52
16 -85 6 -33 13 -69 15 -80 2 -11 6 -29 8 -40 2 -11 7 -40 11 -65 4 -25 9 -54
12 -65 2 -11 8 -42 13 -70 5 -27 12 -63 15 -80 3 -16 10 -52 14 -80 5 -27 12
-61 15 -75 3 -14 8 -38 10 -55 3 -16 19 -108 37 -203 l32 -173 -20 -28 c-99
-134 -47 -338 105 -412 67 -33 189 -33 247 0 57 32 99 76 126 129 31 59 34
178 6 231 l-17 35 34 56 c20 32 62 99 95 151 33 52 67 105 74 119 18 33 488
788 540 868 l42 63 65 3 c293 10 370 402 105 531 -59 29 -174 27 -237 -4 -136
-65 -195 -238 -128 -376 l22 -45 -45 -72 c-66 -109 -456 -737 -486 -784 -14
-22 -73 -117 -131 -211 l-105 -172 -50 6 c-27 3 -51 6 -52 7 -1 1 -4 14 -7 29
-3 15 -10 53 -16 85 -5 31 -12 68 -15 82 -7 34 -74 393 -85 455 -10 58 -68
368 -75 405 -18 92 -20 83 39 142 65 66 91 136 83 224 -9 99 -77 194 -164 231
-53 22 -160 25 -213 6z"/>
</g>
</svg>
